# xmcd
#
# Track frame offsets: 
#        150
#        11052
#        21812
#        32910
#        45712
#        64205
#        77707
#        90460
#        104392
#        126577
#        141227
#        158722
#        172072
#        201065
#        214912
#        225250
#        235645
#        251385
#        264960
#        278132
#
# Disc length: 3968 seconds
#
# Revision: 5
# Processed by: cddbd v1.5.2PL0 Copyright (c) Steve Scherf et al.
# Submitted via: ExactAudioCopyFreeDBPlugin 1.0
#
DISCID=100f7e14
DTITLE=Wilson Pickett - A Man And A Half:  The Best of Wilson Pickett
DYEAR=1992
DGENRE=Soul
TTITLE0=I'm a Midnight Mover
TTITLE1=I Found a True Love
TTITLE2=She's Looking Good
TTITLE3=A Man and a Half
TTITLE4=Hey Jude
TTITLE5=Mini-Skirt Minnie
TTITLE6=Toe Hold
TTITLE7=Hey Joe
TTITLE8=You Keep Me Hangin' On
TTITLE9=She Said Yes
TTITLE10=Cole, Cooke and Redding
TTITLE11=Sugar Sugar
TTITLE12=Get Me Back on Time, Engine Number 9
TTITLE13=Don't Let the Green Grass Fool You
TTITLE14=Don't Knock My Love - Pt. I
TTITLE15=Call My Name, I'll Be There
TTITLE16=Fire and Water
TTITLE17=(Your Love Has Brought Me) A Mighty Long Way
TTITLE18=Funk Factory
TTITLE19=Funky Broadway (live in Ghana)
EXTD=Rhino 8122-70287-2 YEAR: 1992
EXTT0=
EXTT1=
EXTT2=
EXTT3=
EXTT4=
EXTT5=
EXTT6=
EXTT7=
EXTT8=
EXTT9=
EXTT10=
EXTT11=
EXTT12=
EXTT13=
EXTT14=
EXTT15=
EXTT16=
EXTT17=
EXTT18=
EXTT19=
PLAYORDER=
